# xmcd CD database file
#
# Track frame offsets:
#	150
#	19610
#	43772
#	75110
#	117245
#	140385
#	154397
#	174795
#
# Disc length: 2582 seconds
#
# Revision: 1
# Processed by: cddbd v1.5.1PL0 Copyright (c) Steve Scherf et al.
# Submitted via: CDex 1.51
#
DISCID=540a1408
DTITLE=Herberto Castillo - Reflexiones
DYEAR=1998
DGENRE=Jazz
TTITLE0=waltzamba
TTITLE1=joy spring
TTITLE2=reflexion
TTITLE3=impressions
TTITLE4=salio el sol
TTITLE5=pequeno preludio
TTITLE6=el blues de herberto
TTITLE7=well you neednt
EXTD=YEAR: 1998
EXTT0=
EXTT1=
EXTT2=
EXTT3=
EXTT4=
EXTT5=
EXTT6=
EXTT7=
PLAYORDER=
